<svg width="161" height="131" viewBox="0 0 161 131" fill="none" xmlns="http://www.w3.org/2000/svg">
<path d="M38.3797 1.67014C42.5797 2.46014 46.7 4.11014 50.45 6.67014L145.92 71.9001C160.41 81.8001 164.13 101.58 154.23 116.07C144.33 130.56 124.56 134.28 110.06 124.38L14.5896 59.1501C0.0996399 49.2501 -3.62042 29.4702 6.27958 14.9802C13.6096 4.2502 26.3699 -0.579863 38.3699 1.67014H38.3797Z" fill="#0EFDF2" stroke="black" stroke-width="0.85" stroke-miterlimit="10"/>
<path d="M6.29 14.9801C-0.500003 24.9101 -0.869808 37.3202 4.24019 47.3302C7.65019 54.0202 13.9798 58.8201 21.3598 60.2301C21.3998 60.2301 21.4399 60.2402 21.4799 60.2502C38.4799 63.4302 54.83 52.2201 58 35.2301C59.95 24.8001 56.47 14.6202 49.58 7.58024C46.58 4.51024 42.6699 2.4801 38.4599 1.6801H38.3901C26.3801 -0.579902 13.6298 4.25015 6.29976 14.9801H6.29Z" fill="white" stroke="black" stroke-width="0.85" stroke-miterlimit="10"/>
<path d="M34.4399 0.60022L28.6401 60.7501L134.47 129.41" stroke="black" stroke-width="0.85" stroke-miterlimit="10"/>
<path d="M1.2998 26.9901L57.5601 39.5802L158.58 106.73" stroke="black" stroke-width="0.85" stroke-miterlimit="10"/>
<path d="M131.86 62.3002C136.4 66.9402 139.62 71.1702 141.69 77.3002C146.12 90.4002 141.79 105.31 130.17 113.25C119.69 120.42 106.26 121.06 95.4902 114.43" stroke="black" stroke-width="0.85" stroke-miterlimit="10"/>
<path d="M109.48 47.0602C113.85 50.7502 116.85 56.4601 119.13 61.6801C124.16 73.2001 120.79 85.34 112.46 94.4C109.75 97.35 107 99.78 103.27 101.4C93.44 105.65 85.5502 107.56 76.4102 101.4" stroke="black" stroke-width="0.85" stroke-miterlimit="10"/>
<path d="M87.27 31.8302C91.7 36.2502 95.1601 41.9702 97.3901 47.8002C101.96 59.7402 99.07 73.1701 89.29 81.7201C80.66 89.2601 68.4502 92.6302 57.6802 88.5902" stroke="black" stroke-width="0.85" stroke-miterlimit="10"/>
<path d="M64.23 16.0802C66.21 17.6902 67.47 20.4002 68.77 22.5602C70.22 24.9802 71.5398 27.48 72.5098 30.14C75.7898 39.1 75.17 49.45 70.73 57.89C68.33 62.45 64.8901 66.53 60.5801 69.39C52.8801 74.5 44.1899 75.4602 35.4199 73.3702" stroke="black" stroke-width="0.85" stroke-miterlimit="10"/>
</svg>
