<svg xmlns="http://www.w3.org/2000/svg" width="139" height="167" viewBox="0 0 139 167" fill="none">
<g clip-path="url(#clip0_1103_6733)">
<rect width="1440" height="6965" transform="translate(-1132 -4840)" />
<rect x="-1132" y="-213" width="1440" height="840" />
<path fill-rule="evenodd" clip-rule="evenodd" d="M-1132 213C-1090.5 237 -971.557 248.9 -877.882 218.5C-842.014 206.86 -784.207 174.186 -714.282 134.663C-555.935 45.1625 -335.445 -79.4626 -166.851 -74.5C-132.578 -73.4911 -97.5166 -70.7832 -62.6299 -68.0888C92.6786 -56.0937 244.528 -44.3658 308 -184V-213H-1132V213Z" fill="black"/>
<path d="M62.2198 1.2204C69.7398 1.9004 77.2398 4.12044 84.2698 8.01044L262.94 106.8C290.06 121.79 299.89 155.94 284.89 183.05C269.9 210.17 235.76 220 208.64 205L29.9698 106.21C2.84982 91.2201 -6.98025 57.0701 8.01975 29.9601C19.1298 9.87015 40.7398 -0.7296 62.2198 1.2204Z" fill="#0EFDF2" stroke="black" stroke-width="1.51" stroke-miterlimit="10"/>
<path d="M8.02027 29.9599C-2.25973 48.5499 -0.839702 70.4201 9.8003 87.1601C16.9103 98.3501 28.8403 105.74 42.0403 106.98C42.1103 106.98 42.1804 106.99 42.2504 107C72.6504 109.76 99.5303 87.3399 102.29 56.9399C103.98 38.2799 96.1804 20.9699 82.8804 9.7299C77.0904 4.8399 69.8903 1.91013 62.3403 1.22013H62.2203C40.7403 -0.739867 19.1203 9.86011 8.02027 29.9501V29.9599Z" fill="white" stroke="black" stroke-width="1.51" stroke-miterlimit="10"/>
<path d="M55.12 0L54.9199 106.7L252.38 209.79" stroke="black" stroke-width="1.51" stroke-miterlimit="10"/>
<path d="M1.25 51.9102L102.23 64.6704L291 165.92" stroke="black" stroke-width="1.51" stroke-miterlimit="10"/>
<path d="M153.18 46.1104C161.71 53.1404 168.73 62.62 173.62 72.5C183.64 92.72 180.8 116.82 165.03 133.47C151.12 148.16 130.21 156.12 110.61 150.8" stroke="black" stroke-width="1.51" stroke-miterlimit="10"/>
<path d="M110.05 22.2603C113.8 24.7603 116.47 29.3104 119.1 32.9004C122.05 36.9104 124.79 41.1001 126.94 45.6001C134.2 60.8101 134.83 79.1002 128.42 94.6802C124.96 103.09 119.59 110.84 112.49 116.58C99.7997 126.85 84.6797 129.97 68.9297 127.76" stroke="black" stroke-width="1.51" stroke-miterlimit="10"/>
</g>
<defs>
<clipPath id="clip0_1103_6733">
<rect width="1440" height="6965" fill="white" transform="translate(-1132 -4840)"/>
</clipPath>
</defs>
</svg>
