<svg width="325" height="412" viewBox="0 0 325 412" fill="none" xmlns="http://www.w3.org/2000/svg">
<path d="M-47.1997 2.59998C-47.1997 2.59998 -1.41969 36.5298 1.48031 38.8998C4.38031 41.2698 20.2003 49.8099 20.2003 49.8099C20.2003 49.8099 33.2903 53.2599 36.0203 54.5399C38.7503 55.8199 52.2003 60.5398 54.0203 60.8998C55.8403 61.2598 60.9303 62.1699 62.0203 63.8099C63.1103 65.4499 75.7703 72.3899 80.9003 72.7499C86.0403 73.1099 96.3203 74.7799 101.82 71.7899C107.32 68.7999 110.55 66.7701 118.31 68.2001C126.07 69.6301 129.55 71.9101 132.17 69.9901C134.79 68.0701 130.14 77.7597 130.14 77.7597C138.98 72.9797 143.77 69.9899 147.35 71.3099C150.94 72.6199 157.27 80.5097 157.27 80.5097C157.27 80.5097 173.21 74.7498 178 67.1298C182.79 59.5098 180.5 77.7697 178.76 80.5097C177.02 83.2496 174.41 89.2297 185.18 89.3397C195.95 89.4497 199.66 87.5597 202.33 88.0897C205 88.6197 208.37 90.8397 212.11 88.3197C215.86 85.7997 216.54 83.4297 219.83 86.0297C223.12 88.6297 228.93 95.2001 230.99 95.4301C233.05 95.6601 236.37 91.4199 241.09 91.3099C245.81 91.1999 250.04 92.7701 253.73 94.2401C257.42 95.7101 258.29 96.2498 261.76 92.9398C265.23 89.6298 271.36 84.8601 273.96 88.2201C276.56 91.5801 267.16 106.72 260.55 111.5C253.94 116.28 250.63 123.9 251.37 127.48C252.11 131.06 255.5 139.79 253.57 142.27C251.64 144.75 248.52 146.4 248.7 148.52C248.88 150.64 252.65 151.37 254.95 153.3C257.25 155.23 248.98 157.43 248.43 160.65C247.88 163.87 244.76 176.08 253.3 182.05C261.84 188.02 257.71 197.57 254.03 198.77C250.36 199.96 249.71 202.08 252.84 206.21C255.96 210.34 277.27 220.63 278.19 225.68C279.11 230.73 268.09 232.29 264.78 233.21C261.47 234.13 255.96 233.58 257.07 239.36C258.17 245.15 259.9 250.91 268.9 254.41C277.9 257.91 286.78 265.16 283.65 269.29C280.52 273.42 269.02 273.04 264.9 270.17C260.77 267.29 258.02 284.8 264.4 286.55C270.78 288.3 279.65 287.05 282.15 290.68C284.65 294.31 295.65 298.31 292.53 301.68C289.4 305.06 274.4 301.93 273.15 304.18C271.9 306.43 275.4 310.56 276.03 311.68C276.66 312.8 275.78 313.68 271.65 314.56C267.52 315.44 262.77 316.06 261.9 317.56C261.03 319.06 260.15 329.31 266.65 333.94C273.15 338.57 283.28 342.07 281.9 345.44C280.52 348.82 272.4 343.69 267.77 343.81C263.14 343.94 270.15 350.31 274.4 351.94C278.65 353.57 290.03 357.69 291.53 359.44C293.03 361.19 294.78 367.32 294.78 367.32L299.41 371.95C299.41 371.95 315.67 380.74 318.11 381.91C320.55 383.08 333.09 394.87 314.71 401.99C313.12 398.91 312.16 391.26 309.19 391.69C306.22 392.11 298.45 394.55 292 394.24C285.55 393.93 280.34 390.33 277.37 386.24C274.4 382.15 270.56 381.91 267.72 382.9C264.88 383.89 265.12 390.08 266.36 395.03C267.6 399.98 268.34 410.37 265.62 410.74C262.9 411.11 256.34 385.37 247.31 381.66C238.28 377.95 224.42 368.42 222.81 373.25C221.2 378.08 229.37 383.27 228.5 389.71C227.63 396.14 228.01 385.01 218.97 383.65C209.94 382.29 204.74 378.7 202.39 373.63C200.04 368.56 197.07 361.13 193.11 359.52C189.15 357.91 174.3 355.44 170.34 359.4C166.38 363.36 171.08 368.43 176.77 371.65C182.46 374.87 187.04 381.67 187.41 385.51C187.78 389.35 180.11 381.67 173.68 381.67C167.25 381.67 161.31 381.92 156.73 377.22C152.15 372.52 131.28 352.64 124.87 349.82C118.46 347 97.4603 340.98 102.58 347.77C104.5 350.72 109.13 348.41 111.04 352.64C112.95 356.87 110.39 362.63 104.62 362.5C98.8603 362.37 81.0503 361.99 65.4203 346.74C49.7903 331.5 33.1403 337.64 34.6803 344.69C35.9603 350.84 37.6303 356.86 41.4703 359.68C45.3103 362.5 49.2803 371.59 46.2103 370.57C43.1403 369.55 38.9103 371.08 35.0703 364.68C31.2303 358.28 29.4303 349.31 21.1103 345.85C12.7803 342.39 5.61031 339.32 2.54031 339.19C-0.529686 339.06 -5.46968 336.24 -6.39968 332.09C-7.32969 327.94 -18.4097 283.39 -15.9297 269.06C-13.4497 254.73 -17.8597 215.33 -20.0597 203.76C-22.2597 192.19 -27.4997 155.26 -29.1497 143.42C-30.7997 131.58 -34.9397 119.45 -34.9397 116.14C-34.9397 112.83 -35.4897 83.35 -37.9697 75.64C-40.4497 67.92 -48.4397 31.8299 -48.4397 28.2499C-48.4397 24.6699 -52.5697 6.55004 -51.7497 2.66004C-50.9197 -1.22996 -47.1997 2.66004 -47.1997 2.66004V2.59998Z" fill="#24F3EC" stroke="black" stroke-width="0.55" stroke-miterlimit="10"/>
<path d="M237.87 104.79C243.86 107.32 237.55 132.84 235.6 143.7C233.65 154.56 232.03 177.59 231.71 181.97C231.39 186.35 240.3 223.8 241.6 229.8C242.9 235.8 246.95 241.31 245.17 250.72C243.39 260.13 237.99 274.56 238.66 283.15C239.33 291.74 240.47 301.8 242.41 307.15C244.36 312.5 246.79 320.45 249.87 324.34C252.95 328.23 255.71 342.34 264.14 350.61C272.57 358.88 270.79 372.5 269 374.28C261.7 370.39 236.41 361.47 225.38 358.55C214.35 355.63 194.57 350.28 190.03 345.74C185.49 341.2 177.87 335.69 173.17 336.01C168.47 336.33 152.42 337.96 148.52 338.44C144.62 338.92 117.23 335.2 108.79 333.25C100.36 331.3 77.3301 325.79 74.0901 325.3C70.8501 324.81 66.6301 322.71 59.6601 324.81C52.6901 326.91 34.0401 329.19 30.9601 326.43C27.8801 323.67 25.9301 316.21 23.3401 314.76C20.7501 313.31 11.8301 311.19 7.6101 312.49C3.39009 313.79 1.1201 314.11 1.1201 314.11L-7.2599 239.52C-7.2599 239.52 -14.0199 174.95 -14.7499 173.26C-15.4799 171.57 -22.2399 129.54 -22.2399 123.74C-22.2399 117.94 -23.4499 105.62 -23.9299 101.28C-24.4099 96.9396 -24.4099 86.5496 -25.8599 79.2996C-27.3099 72.0496 -28.9999 63.5997 -29.2399 62.6297C-29.4799 61.6597 -35.5199 39.9299 -34.5499 35.5799C-33.5799 31.2299 -13.2899 46.69 -11.5999 47.66C-9.9099 48.63 30.9101 71.3298 43.2301 74.2298C55.5501 77.1298 88.4001 87.76 93.7101 89.93C99.0201 92.1 106.99 93.55 122.45 97.18C137.91 100.8 155.78 103.7 163.03 103.94C170.28 104.18 175.59 104.18 182.84 105.15C190.09 106.12 188.64 105.87 198.78 105.63C208.92 105.39 223.79 98.8496 237.85 104.78L237.87 104.79Z" fill="#FC2D56" stroke="black" stroke-width="0.55" stroke-miterlimit="10"/>
<path d="M-9.43995 62.6201C-9.91995 66.6701 -7.05995 91.2098 -6.81995 99.7798C-6.57995 108.35 0.490051 115.98 -0.249949 121.14C-0.989948 126.3 0.670052 148.79 1.41005 155.98C2.15005 163.17 3.07005 176.26 3.25005 183.63C3.43005 191 10.2501 199.48 10.0701 209.25C9.89005 219.02 13.2001 245.38 14.3101 247.96C15.4201 250.54 18.5501 257.36 18.5501 264.92C18.5501 272.48 20.7601 277.45 20.0201 286.3C19.2801 295.15 19.2801 297.36 19.2801 297.36C19.2801 297.36 24.9901 304.73 31.8101 305.29C38.6301 305.84 53.3801 303.82 58.5401 303.63C63.7001 303.44 76.4201 306.21 83.2401 308.24C90.0601 310.27 112.73 312.66 112.73 312.66C112.73 312.66 143.14 310.45 151.81 312.66C160.47 314.87 180.38 325.56 185.36 328.7C190.34 331.83 199.55 334.97 206.93 334.78C214.31 334.59 245.82 343.26 245.82 343.26L255.41 345.66C255.41 345.66 250.06 323.36 243.43 318.38C236.79 313.4 234.58 304.74 232 301.61C229.42 298.48 218.36 275.07 218.36 268.25C218.36 261.43 221.31 242.08 220.94 230.65C220.57 219.22 216.52 207.98 215.96 200.79C215.4 193.6 214.12 186.23 215.59 174.25C217.06 162.27 218.91 127.43 215.22 125.4C205.08 126.51 184.07 127.06 166.74 124.85C149.41 122.64 105.17 114.16 77.34 105.86C49.51 97.5699 38.2601 92.0399 33.6501 90.3799C29.0401 88.7199 22.4101 80.7902 19.2701 77.6602C16.1301 74.5302 12.6301 70.0999 10.6101 69.9199C8.59005 69.7399 4.90005 69.9199 4.90005 69.9199C4.90005 69.9199 1.21005 62.7401 -0.629949 62.6401C-2.46995 62.5401 -9.44995 62.6401 -9.44995 62.6401L-9.43995 62.6201Z" fill="#24F3EC" stroke="black" stroke-width="0.55" stroke-miterlimit="10"/>
<path d="M16.5205 88.7002C16.5205 88.7002 20.0605 120.26 19.3105 125.12C18.5605 129.98 19.1205 143.25 21.7405 147.55C24.3605 151.85 25.4805 154.84 25.4805 158.76C25.4805 162.68 22.6805 182.87 26.7905 194.08C30.9005 205.29 31.4605 208.1 32.9605 214.83C34.4605 221.56 38.3805 247.35 37.0705 255.39C35.7605 263.43 35.7605 278.75 38.5705 280.43C41.3805 282.11 49.4105 280.24 56.7005 282.86C63.9905 285.48 73.7105 288.65 83.8005 287.72C93.8905 286.79 96.2205 286.97 107.611 287.23C119.001 287.49 121.981 283.74 127.161 286.58C132.341 289.43 139.72 297.45 146.451 299.65C153.18 301.85 170.4 308.06 178.29 310.78C186.19 313.5 200.041 313.24 204.051 313.63C208.061 314.02 228.9 319.71 228.9 319.71C228.9 319.71 226.63 297.46 221.9 290.6C217.171 283.74 211.611 277.7 211.29 275.58C210.96 273.46 211.131 265.46 206.071 259.74C201.011 254.03 199.54 252.23 198.561 248.8C197.581 245.37 197.421 243.58 197.09 240.8C196.76 238.02 194.8 198.35 195.62 191.49C196.441 184.63 197.09 173.86 196.93 168.96C196.77 164.06 199.871 151.49 195.301 149.04C190.73 146.59 167.221 144.31 159.711 144.63C152.201 144.95 107.951 140.38 93.5905 135.32C79.2205 130.26 46.7305 104.95 41.6705 102.99C36.6105 101.03 22.7905 88.7099 16.5605 88.6699L16.5205 88.7002Z" fill="#EFEB00" stroke="black" stroke-width="0.55" stroke-miterlimit="10"/>
<path d="M41.1306 113.51C40.6606 120.72 41.6006 140.48 43.4606 152.11C45.3206 163.74 49.5106 178.15 49.5106 185.59C49.5106 193.03 53.7006 198.19 51.1406 204.56C48.5806 210.93 49.5406 216.05 51.9706 221.86C54.4006 227.67 58.1206 236.28 58.1206 240.69C58.1206 245.1 60.9106 249.76 60.9106 253.25C60.9106 256.74 61.8406 262.32 62.7706 262.55C63.7006 262.78 74.8606 266.64 80.5506 264.25C86.2406 261.86 87.5306 257.64 94.5106 260.21C101.491 262.78 118.941 276.93 129.041 277.66C139.141 278.39 151.451 285.01 154.761 286.11C158.071 287.21 173.311 289.97 173.311 289.97C173.311 289.97 199.581 295.85 201.411 293.83C203.251 291.81 204.721 279.32 200.121 267.75C195.521 256.18 189.651 245.89 186.161 240.93C182.671 235.97 177.531 229.17 176.061 223.3C174.591 217.42 174.041 203.28 173.301 196.3C172.571 189.32 172.201 177.75 172.381 171.32C172.561 164.89 154.381 168.93 147.581 168.38C140.781 167.83 123.151 162.13 120.031 160.85C116.911 159.56 107.361 156.81 103.871 155.52C100.381 154.23 87.8906 148.36 85.5006 146.52C83.1106 144.68 77.6006 140.09 75.4006 137.52C73.2006 134.95 63.8306 122.46 56.4806 119.52C49.1306 116.58 41.1406 113.53 41.1406 113.53L41.1306 113.51Z" fill="#FC2D56" stroke="black" stroke-width="0.55" stroke-miterlimit="10"/>
</svg>
