<svg xmlns="http://www.w3.org/2000/svg" width="269" height="173" viewBox="0 0 269 173" fill="none">
<path d="M266.818 65.3066L205.941 158.012C205.941 158.012 178.297 195.501 119.899 147.702C119.862 147.673 119.826 147.651 119.797 147.622C119.71 147.557 119.652 147.499 119.601 147.463L119.558 147.427C119.558 147.427 119.522 147.398 119.5 147.383L37.1553 79.9152L96.2639 1L266.811 65.3066H266.818Z" fill="#E9F300" stroke="black" stroke-width="0.608994" stroke-miterlimit="10"/>
<path d="M119.602 147.47C119.674 147.521 119.732 147.579 119.797 147.63C119.71 147.565 119.652 147.506 119.602 147.47Z" fill="#FF00FF" stroke="black" stroke-width="0.442245" stroke-linejoin="round"/>
<mask id="mask0_1103_9014" style="mask-type:luminance" maskUnits="userSpaceOnUse" x="37" y="3" width="232" height="169">
<path d="M268.479 65.894L205.941 158.019C205.941 158.019 178.297 195.508 119.899 147.71C119.862 147.68 119.826 147.659 119.797 147.63C119.71 147.565 119.652 147.506 119.601 147.47L119.558 147.434C119.558 147.434 119.522 147.405 119.5 147.391L37.1553 79.9227L92.2836 3.81299L268.471 65.9011L268.479 65.894Z" fill="white"/>
</mask>
<g mask="url(#mask0_1103_9014)">
<path d="M211.959 149.145C211.959 149.145 188.607 197.357 127.533 153.002C131.281 155.67 158.28 174.208 173.65 145.128C173.65 145.128 194.718 177.26 211.959 149.145Z" fill="black" stroke="black" stroke-width="0.442245" stroke-linejoin="round"/>
</g>
<path d="M227.589 126.126L162.543 26.3748L68.1631 38.5325L94.1832 126.641L227.589 126.126Z" fill="#FD0048" stroke="black" stroke-width="0.608994" stroke-miterlimit="10"/>
<path d="M213.908 118.717L99.6925 119.159L76.1738 43.3902L158.867 34.3132L213.908 118.717ZM102.237 115.708L207.593 115.295L157.177 37.9817L80.7195 46.3772L102.237 115.716V115.708Z" fill="#E9F300" stroke="black" stroke-width="0.608994" stroke-miterlimit="10"/>
<path d="M205.941 158.019C205.941 158.019 178.297 195.508 119.898 147.709C123.487 150.588 150.906 171.119 168.045 143.062C168.045 143.062 188.751 174.585 205.941 158.011V158.019Z" fill="#0EFDF2" stroke="black" stroke-width="0.608994" stroke-miterlimit="10"/>
<path d="M175.317 64.1463L176.441 61.2754L181.349 63.958C183.104 64.9222 185.105 66.0095 187.012 65.7775C188.549 65.5963 190.194 64.0883 190.1 62.3483C189.969 60.2169 187.526 58.9846 185.446 58.5786C182.56 58.0204 178.754 58.6871 175.694 59.2236L175.165 59.3181L174.854 56.2004L175.383 56.1063C178.623 55.5408 182.647 54.8304 185.924 55.4683C189.991 56.2586 192.529 58.7164 192.695 62.0659C192.891 65.7488 190.006 68.569 187.193 68.9097C184.597 69.2215 182.169 67.8947 180.218 66.8289L175.31 64.1463H175.317Z" fill="#00FFED" stroke="black" stroke-width="0.442245" stroke-miterlimit="10"/>
<mask id="mask1_1103_9014" style="mask-type:luminance" maskUnits="userSpaceOnUse" x="174" y="55" width="19" height="14">
<path d="M175.316 64.1468L176.44 61.2759L181.348 63.9585C183.103 64.9227 185.104 66.01 187.011 65.778C188.548 65.5968 190.193 64.0888 190.099 62.3488C189.968 60.2174 187.525 58.9851 185.445 58.5791C182.559 58.0208 178.753 58.6876 175.693 59.2241L175.164 59.3186L174.853 56.2009L175.382 56.1067C178.622 55.5413 182.646 54.8308 185.923 55.4688C189.99 56.2591 192.528 58.7169 192.695 62.0663C192.89 65.7493 190.005 68.5695 187.192 68.9102C184.596 69.222 182.168 67.8952 180.217 66.8294L175.309 64.1468H175.316Z" fill="white"/>
</mask>
<g mask="url(#mask1_1103_9014)">
<path d="M176.753 48.161C176.753 48.161 183.416 58.3833 178.797 76.3631C173.824 95.7422 159.121 86.0635 159.121 86.0635L162.376 43.6733L176.746 48.161H176.753Z" fill="black" stroke="black" stroke-width="0.442245" stroke-linejoin="round"/>
</g>
<path d="M45.5943 38.8009C45.5943 38.8009 36.4013 24.6418 24.5477 30.2967C12.9116 35.8502 5.08888 36.8652 2.2324 37.2132C-1.08081 37.6119 1.91337 53.7867 15.7897 59.1662C32.2616 65.5533 37.6193 61.2613 44.8982 54.2289C44.8982 54.2289 49.7049 41.5631 45.6014 38.8009H45.5943Z" fill="white"/>
<mask id="mask2_1103_9014" style="mask-type:luminance" maskUnits="userSpaceOnUse" x="1" y="28" width="47" height="35">
<path d="M45.5943 38.8009C45.5943 38.8009 36.4013 24.6418 24.5477 30.2967C12.9116 35.8502 5.08888 36.8652 2.2324 37.2132C-1.08081 37.6119 1.91337 53.7867 15.7897 59.1662C32.2616 65.5533 37.6193 61.2613 44.8982 54.2289C44.8982 54.2289 49.7049 41.5631 45.6014 38.8009H45.5943Z" fill="white"/>
</mask>
<g mask="url(#mask2_1103_9014)">
<path d="M18.5228 30.9132C18.5228 30.9132 12.1936 35.2053 16.7031 40.1208C21.2125 45.0362 9.54745 47.2619 14.7674 53.3084C26.1353 66.4742 8.61215 66.6119 1.83347 59.8043C-1.90024 56.0561 -12.0501 39.381 -5.43088 33.4578C1.1883 27.5274 18.5228 30.9132 18.5228 30.9132Z" fill="black"/>
</g>
<path d="M45.5943 38.8009C45.5943 38.8009 36.4013 24.6418 24.5477 30.2967C12.9116 35.8502 5.08888 36.8652 2.2324 37.2132C-1.08081 37.6119 1.91337 53.7867 15.7897 59.1662C32.2616 65.5533 37.6193 61.2613 44.8982 54.2289C44.8982 54.2289 49.7049 41.5631 45.6014 38.8009H45.5943Z" stroke="black" stroke-width="0.608994" stroke-miterlimit="10"/>
<path d="M44.3255 54.3665C44.3255 54.3665 175.723 67.5612 175.752 67.5612C176.963 67.6844 178.224 64.2915 178.572 59.9923C178.92 55.6931 178.224 52.1045 177.021 51.9813C176.992 51.9813 45.6014 38.7937 45.6014 38.7937C45.6014 38.7937 45.5942 38.7937 45.587 38.7937C45.587 38.7937 45.5797 38.7937 45.5725 38.7937H45.4855V38.8153C44.311 38.895 43.1148 42.1792 42.774 46.3551C42.4333 50.5311 43.0858 54.0038 44.224 54.3156V54.352L44.3183 54.3591L44.3255 54.3665Z" fill="#00FFED" stroke="black" stroke-width="0.442245" stroke-miterlimit="10"/>
<mask id="mask3_1103_9014" style="mask-type:luminance" maskUnits="userSpaceOnUse" x="42" y="38" width="137" height="30">
<path d="M44.3255 54.3665C44.3255 54.3665 175.723 67.5612 175.752 67.5612C176.963 67.6844 178.224 64.2915 178.572 59.9923C178.92 55.6931 178.224 52.1045 177.021 51.9813C176.992 51.9813 45.6014 38.7937 45.6014 38.7937C45.6014 38.7937 45.5942 38.7937 45.587 38.7937C45.587 38.7937 45.5797 38.7937 45.5725 38.7937H45.4855V38.8153C44.311 38.895 43.1148 42.1792 42.774 46.3551C42.4333 50.5311 43.0858 54.0038 44.224 54.3156V54.352L44.3183 54.3591L44.3255 54.3665Z" fill="white"/>
</mask>
<g mask="url(#mask3_1103_9014)">
<path d="M88.5503 41.5484C88.5503 41.5484 97.1994 53.7647 84.0698 77.7474C70.9474 101.73 50.5026 76.9499 50.5026 76.9499L47.3271 37.6916L71.6071 31.6523L88.5576 41.5484H88.5503Z" fill="black" stroke="black" stroke-width="0.442245" stroke-linejoin="round"/>
</g>
<path d="M43.4846 55.2654L84.8962 59.6154H84.9179C84.9179 59.6154 84.9469 59.6228 84.9759 59.6228C86.1866 59.7461 87.5496 55.0844 87.8976 50.7852C88.2455 46.486 87.6294 41.911 86.4259 41.795C86.3969 41.795 86.3969 41.795 86.3679 41.795H86.3461L44.9418 37.4451C44.9418 37.4451 44.9346 37.4451 44.9273 37.4451C44.9273 37.4451 44.9201 37.4451 44.9128 37.4451H44.8258L44.7098 37.438C43.5353 37.5177 42.3681 41.8242 42.0273 46.0002C41.6866 50.1761 42.1433 54.9392 43.2816 55.2509L43.3686 55.2654H43.4628V55.28L43.4846 55.2654Z" fill="#0EFDF2" stroke="black" stroke-width="0.369746" stroke-miterlimit="10"/>
</svg>
