<svg width="171" height="135" viewBox="0 0 171 135" fill="none" xmlns="http://www.w3.org/2000/svg">
<path d="M170.16 77.27C170.29 90.52 166.991 104.05 159.071 114.85C149.681 127.64 133.98 134.75 118.2 134.58C101.52 134.4 77.38 130.15 61.26 122.85" fill="black"/>
<path d="M170.16 77.27C170.29 90.52 166.991 104.05 159.071 114.85C149.681 127.64 133.98 134.75 118.2 134.58C101.52 134.4 77.38 130.15 61.26 122.85" stroke="black" stroke-width="0.62" stroke-miterlimit="10"/>
<path d="M170.14 77.26L167.64 76.0801L161.87 73.3601C142.68 112.74 95.3399 129.48 55.6099 110.72C15.8799 91.96 -1.26999 44.7699 16.94 4.92993L8.66999 1.03003C-4.38001 29.48 -1.22981 61.31 14.3702 86.01C20.4602 95.65 28.4399 104.2 38.0899 111.05C42.3099 114.04 46.8603 116.71 51.7003 119C95.9903 139.91 148.78 121.22 170.13 77.27L170.14 77.26Z" fill="#0EFDF2" stroke="black" stroke-width="0.62" stroke-miterlimit="10"/>
<path d="M162.5 73.8201L156.611 71.04L21.0902 7.05005L15.2006 4.27002C-3.30944 44.76 14.1204 92.72 54.5004 111.79C94.8804 130.85 142.991 113.84 162.491 73.8201H162.5Z" fill="#FD0048" stroke="black" stroke-width="0.62" stroke-miterlimit="10"/>
<path d="M28.3505 49.6002C29.6505 48.8902 31.9706 45.7602 31.4706 44.8402C30.9706 43.9202 27.0802 44.19 25.7802 44.9C24.4802 45.61 24.0106 47.2401 24.7206 48.5401C25.4306 49.8401 27.0603 50.3102 28.3603 49.6002H28.3505Z" fill="black" stroke="black" stroke-width="0.38" stroke-miterlimit="10"/>
<path d="M26.7905 30.4599C28.2505 30.2199 31.4903 28.04 31.3203 27.01C31.1503 25.98 27.3906 24.9299 25.9306 25.1699C24.4706 25.4099 23.4807 26.7799 23.7207 28.2399C23.9607 29.6999 25.3305 30.6899 26.7905 30.4499V30.4599Z" fill="black" stroke="black" stroke-width="0.38" stroke-miterlimit="10"/>
<path d="M48.7703 49.2901C49.9703 48.4301 51.9101 45.04 51.3001 44.19C50.6901 43.34 46.8604 44.07 45.6604 44.93C44.4604 45.79 44.1803 47.46 45.0403 48.67C45.9003 49.87 47.57 50.1501 48.78 49.2901H48.7703Z" fill="black" stroke="black" stroke-width="0.38" stroke-miterlimit="10"/>
<path d="M63.1899 65.8402C64.0199 64.6102 64.65 60.77 63.79 60.18C62.92 59.59 59.5898 61.6102 58.7598 62.8402C57.9298 64.0702 58.25 65.7302 59.48 66.5602C60.71 67.3902 62.3702 67.0702 63.2002 65.8402H63.1899Z" fill="black" stroke="black" stroke-width="0.38" stroke-miterlimit="10"/>
<path d="M79.56 77.9901C80.09 76.6101 79.83 72.7202 78.85 72.3402C77.87 71.9702 75.0802 74.6901 74.5502 76.0801C74.0202 77.4601 74.7105 79.0101 76.1005 79.5401C77.4805 80.0701 79.03 79.3801 79.56 77.9901Z" fill="black" stroke="black" stroke-width="0.38" stroke-miterlimit="10"/>
<path d="M96.5799 81.4601C96.6299 79.9801 95.1299 76.3802 94.0799 76.3402C93.0299 76.3002 91.2796 79.7901 91.2196 81.2601C91.1696 82.7401 92.3197 83.9801 93.7997 84.0301C95.2797 84.0801 96.5202 82.93 96.5702 81.45L96.5799 81.4601Z" fill="black" stroke="black" stroke-width="0.38" stroke-miterlimit="10"/>
<path d="M113.081 76.52C112.821 75.06 110.58 71.87 109.55 72.05C108.52 72.24 107.54 76.01 107.8 77.47C108.06 78.93 109.451 79.8899 110.911 79.6299C112.371 79.3699 113.331 77.98 113.071 76.52H113.081Z" fill="black" stroke="black" stroke-width="0.38" stroke-miterlimit="10"/>
<path d="M126.32 89.82C125.9 88.4 123.319 85.48 122.309 85.78C121.309 86.08 120.76 89.9401 121.18 91.3601C121.6 92.7801 123.1 93.5799 124.51 93.1599C125.93 92.7399 126.729 91.2401 126.309 89.8301L126.32 89.82Z" fill="black" stroke="black" stroke-width="0.38" stroke-miterlimit="10"/>
<path d="M138.74 78.4498C137.79 77.3198 134.26 75.65 133.46 76.32C132.66 76.99 133.69 80.7598 134.64 81.8898C135.59 83.0198 137.28 83.1699 138.41 82.2199C139.54 81.2699 139.69 79.5798 138.74 78.4498Z" fill="black" stroke="black" stroke-width="0.38" stroke-miterlimit="10"/>
<path d="M39.8504 71.0401C40.9104 70.0101 42.3001 66.3601 41.5701 65.6101C40.8401 64.8601 37.1604 66.17 36.1004 67.2C35.0404 68.23 35.0201 69.93 36.0501 70.99C37.0801 72.05 38.7801 72.0701 39.8401 71.0401H39.8504Z" fill="black" stroke="black" stroke-width="0.38" stroke-miterlimit="10"/>
<path d="M104.361 99.48C104.431 98 102.96 94.3901 101.92 94.3401C100.87 94.2901 99.0801 97.75 99.0101 99.23C98.9401 100.71 100.08 101.96 101.56 102.03C103.04 102.1 104.291 100.96 104.361 99.48Z" fill="black" stroke="black" stroke-width="0.38" stroke-miterlimit="10"/>
<path d="M80.2697 100.78C80.5997 99.3401 79.8099 95.5201 78.7999 95.2801C77.7799 95.0401 75.3902 98.1301 75.0602 99.5701C74.7302 101.01 75.6197 102.45 77.0597 102.78C78.4997 103.11 79.9397 102.22 80.2697 100.78Z" fill="black" stroke="black" stroke-width="0.38" stroke-miterlimit="10"/>
<path d="M58.5899 90.43C59.3099 89.14 59.63 85.2501 58.71 84.7401C57.8 84.2301 54.6402 86.5201 53.9102 87.8101C53.1902 89.1001 53.6402 90.73 54.9302 91.46C56.2202 92.18 57.8502 91.73 58.5802 90.44L58.5899 90.43Z" fill="black" stroke="black" stroke-width="0.38" stroke-miterlimit="10"/>
</svg>
