<svg width="49" height="40" viewBox="0 0 49 40" fill="none" xmlns="http://www.w3.org/2000/svg">
<path d="M38.0293 13.0401C39.2993 11.2201 39.7592 9.20994 39.0892 7.41994C37.7492 3.83994 32.4093 2.52025 27.1593 4.49025C23.4893 5.86025 20.8393 8.47015 20.0293 11.1402C17.6693 9.65015 13.9493 9.42982 10.2893 10.7998C5.0393 12.7598 1.86923 17.2601 3.20923 20.8501C3.87923 22.6301 5.53921 23.8602 7.68921 24.3902C3.28921 26.5702 0.779265 30.5799 1.99927 33.8399C3.33927 37.4199 8.67921 38.74 13.9392 36.77C15.5292 36.18 16.9193 35.3502 18.0593 34.3902C18.1093 34.6902 18.1893 34.98 18.2993 35.27C19.6393 38.85 24.9793 40.1702 30.2393 38.2002C35.4893 36.2402 38.6592 31.7399 37.3192 28.1499C37.2192 27.8899 37.1092 27.6399 36.9692 27.3999C38.3892 27.3499 39.8893 27.0502 41.3893 26.4902C46.6393 24.5303 49.8092 20.0302 48.4692 16.4502C47.2592 13.2102 42.7793 11.8301 38.0493 13.0401H38.0293Z" fill="#0EF8ED" stroke="black" stroke-width="0.2" stroke-miterlimit="10"/>
<path d="M47.5297 13.9902C48.8697 17.5702 45.6996 22.0698 40.4496 24.0298C38.9496 24.5898 37.4496 24.8802 36.0297 24.9302C36.1697 25.1702 36.2896 25.4102 36.3796 25.6802C37.7196 29.2702 34.5497 33.76 29.2997 35.73C24.0497 37.69 18.7096 36.3798 17.3596 32.7998C17.2496 32.5098 17.1796 32.2199 17.1196 31.9199C15.9896 32.8799 14.5896 33.6998 12.9996 34.2998C7.74962 36.2598 2.40957 34.9501 1.06957 31.3701C-0.150432 28.1101 2.35963 24.0999 6.75963 21.9199C4.60963 21.3899 2.94965 20.1599 2.27965 18.3799C0.939651 14.7999 4.10961 10.3001 9.35961 8.33006C13.0296 6.96006 16.7396 7.1899 19.0996 8.6699C19.9096 5.9999 22.5596 3.38974 26.2296 2.00974C31.4796 0.0497437 36.8197 1.36017 38.1597 4.95017C38.8297 6.74017 38.3796 8.76006 37.0996 10.5801C41.8196 9.36006 46.2996 10.7502 47.5096 13.9902H47.5297ZM31.5196 16.5498C31.3996 16.2298 30.9496 16.11 30.5196 16.27C30.1596 16.4 29.9297 16.6902 29.9297 16.9702L25.2897 18.7099C25.1797 18.5299 25.0097 18.3998 24.8097 18.3198L26.6396 15.54C26.9296 15.55 27.2296 15.4102 27.3796 15.1802C27.5596 14.9002 27.4496 14.5997 27.1296 14.5097C26.8096 14.4197 26.3996 14.5701 26.2196 14.8501C26.0696 15.0801 26.1196 15.3202 26.3296 15.4502L24.4996 18.23C24.2596 18.19 23.9996 18.2 23.7296 18.27L22.4596 14.8799C22.7696 14.6899 22.9296 14.3801 22.8296 14.1201C22.7096 13.8001 22.2696 13.6798 21.8296 13.8398C21.3896 13.9998 21.1396 14.3899 21.2596 14.7099C21.3596 14.9699 21.6897 15.1 22.0397 15.04L23.3097 18.4302C23.0597 18.5602 22.8496 18.7199 22.6996 18.8999L19.4896 18C19.5596 17.77 19.4397 17.5502 19.1797 17.4702C18.8597 17.3802 18.4496 17.53 18.2696 17.81C18.0896 18.09 18.1996 18.39 18.5196 18.48C18.7796 18.55 19.1096 18.46 19.3196 18.27L22.5297 19.1699C22.4297 19.3699 22.3897 19.5798 22.4197 19.7798L17.7797 21.52C17.5997 21.31 17.2296 21.2499 16.8696 21.3799C16.4296 21.5399 16.1797 21.9302 16.2997 22.2402C16.4197 22.5502 16.8597 22.68 17.2997 22.52C17.6597 22.39 17.8896 22.0898 17.8896 21.8198L22.5297 20.0801C22.6397 20.2601 22.8096 20.3902 23.0096 20.4702L21.1797 23.25C20.8997 23.25 20.5896 23.3798 20.4396 23.6098C20.2596 23.8898 20.3696 24.1898 20.6896 24.2798C21.0096 24.3698 21.4196 24.2199 21.5996 23.9399C21.7496 23.7099 21.6896 23.4698 21.4896 23.3398L23.3196 20.56C23.5596 20.6 23.8196 20.59 24.0896 20.52L25.3596 23.9199C25.0496 24.1099 24.8896 24.4202 24.9896 24.6802C25.1096 25.0002 25.5596 25.1199 25.9896 24.9599C26.4196 24.7999 26.6797 24.4098 26.5597 24.0898C26.4597 23.8298 26.1397 23.6997 25.7797 23.7597L24.5096 20.3598C24.7596 20.2398 24.9696 20.0701 25.1196 19.8901L28.3296 20.79C28.2596 21.02 28.3796 21.2398 28.6396 21.3198C28.9596 21.4098 29.3697 21.26 29.5497 20.98C29.7297 20.7 29.6197 20.4 29.2997 20.31C29.0297 20.24 28.7096 20.33 28.4996 20.52L25.2897 19.6201C25.3897 19.4201 25.4296 19.2097 25.3996 19.0097L30.0397 17.27C30.2197 17.48 30.5896 17.5501 30.9496 17.4101C31.3796 17.2501 31.6396 16.86 31.5196 16.54V16.5498Z" fill="#E4EE00"/>
<path d="M37.1094 10.58C38.3794 8.75998 38.8394 6.74986 38.1694 4.95986C36.8294 1.37986 31.4894 0.0596859 26.2394 2.02969C22.5694 3.39969 19.9194 6.01008 19.1094 8.68008C16.7494 7.19008 13.0294 6.96974 9.36937 8.33974C4.11937 10.2997 0.949417 14.8 2.28942 18.39C2.95942 20.17 4.6194 21.4001 6.7694 21.9301C2.3694 24.1101 -0.140666 28.1198 1.07933 31.3798C2.41933 34.9598 7.7594 36.28 13.0194 34.31C14.6094 33.72 15.9994 32.8901 17.1394 31.9301C17.1894 32.2301 17.2694 32.52 17.3794 32.81C18.7194 36.39 24.0593 37.7101 29.3193 35.7401C34.5693 33.7801 37.7394 29.2798 36.3994 25.6898C36.2994 25.4298 36.1894 25.1798 36.0494 24.9398C37.4694 24.8898 38.9693 24.5897 40.4693 24.0297C45.7193 22.0697 48.8894 17.5701 47.5494 13.9901C46.3394 10.7501 41.8594 9.36998 37.1294 10.58H37.1094Z" stroke="black" stroke-width="0.35" stroke-miterlimit="10"/>
</svg>
