<svg xmlns="http://www.w3.org/2000/svg" width="94" height="95" viewBox="0 0 94 95" fill="none">
<path d="M47.0002 1.12012V47.54" stroke="#E9F300" stroke-width="0.75" stroke-linecap="round" stroke-linejoin="round"/>
<path d="M34.9905 2.69995L47.0002 47.54" stroke="#E9F300" stroke-width="0.75" stroke-linecap="round" stroke-linejoin="round"/>
<path d="M23.7903 7.34009L47.0002 47.54" stroke="#E9F300" stroke-width="0.75" stroke-linecap="round" stroke-linejoin="round"/>
<path d="M14.1799 14.71L47.0002 47.54" stroke="#E9F300" stroke-width="0.75" stroke-linecap="round" stroke-linejoin="round"/>
<path d="M6.80005 24.3301L47.0002 47.54" stroke="#E9F300" stroke-width="0.75" stroke-linecap="round" stroke-linejoin="round"/>
<path d="M2.17017 35.52L47.0002 47.54" stroke="#E9F300" stroke-width="0.75" stroke-linecap="round" stroke-linejoin="round"/>
<path d="M0.580322 47.54H47.0002" stroke="#E9F300" stroke-width="0.75" stroke-linecap="round" stroke-linejoin="round"/>
<path d="M2.17017 59.55L47.0002 47.54" stroke="#E9F300" stroke-width="0.75" stroke-linecap="round" stroke-linejoin="round"/>
<path d="M6.80005 70.75L47.0002 47.54" stroke="#E9F300" stroke-width="0.75" stroke-linecap="round" stroke-linejoin="round"/>
<path d="M14.1799 80.3601L47.0002 47.54" stroke="#E9F300" stroke-width="0.75" stroke-linecap="round" stroke-linejoin="round"/>
<path d="M23.7903 87.74L47.0002 47.54" stroke="#E9F300" stroke-width="0.75" stroke-linecap="round" stroke-linejoin="round"/>
<path d="M34.9905 92.3799L47.0002 47.54" stroke="#E9F300" stroke-width="0.75" stroke-linecap="round" stroke-linejoin="round"/>
<path d="M47.0002 93.96V47.54" stroke="#E9F300" stroke-width="0.75" stroke-linecap="round" stroke-linejoin="round"/>
<path d="M59.0198 92.3799L47.0002 47.54" stroke="#E9F300" stroke-width="0.75" stroke-linecap="round" stroke-linejoin="round"/>
<path d="M70.2102 87.74L47.0002 47.54" stroke="#E9F300" stroke-width="0.75" stroke-linecap="round" stroke-linejoin="round"/>
<path d="M79.8303 80.3601L47.0002 47.54" stroke="#E9F300" stroke-width="0.75" stroke-linecap="round" stroke-linejoin="round"/>
<path d="M87.2102 70.75L47.0002 47.54" stroke="#E9F300" stroke-width="0.75" stroke-linecap="round" stroke-linejoin="round"/>
<path d="M91.8401 59.55L47.0002 47.54" stroke="#E9F300" stroke-width="0.75" stroke-linecap="round" stroke-linejoin="round"/>
<path d="M93.4202 47.54H47.0002" stroke="#E9F300" stroke-width="0.75" stroke-linecap="round" stroke-linejoin="round"/>
<path d="M91.8401 35.52L47.0002 47.54" stroke="#E9F300" stroke-width="0.75" stroke-linecap="round" stroke-linejoin="round"/>
<path d="M87.2102 24.3301L47.0002 47.54" stroke="#E9F300" stroke-width="0.75" stroke-linecap="round" stroke-linejoin="round"/>
<path d="M79.8303 14.71L47.0002 47.54" stroke="#E9F300" stroke-width="0.75" stroke-linecap="round" stroke-linejoin="round"/>
<path d="M70.2102 7.34009L47.0002 47.54" stroke="#E9F300" stroke-width="0.75" stroke-linecap="round" stroke-linejoin="round"/>
<path d="M59.0198 2.69995L47.0002 47.54" stroke="#E9F300" stroke-width="0.75" stroke-linecap="round" stroke-linejoin="round"/>
</svg>
